HIERARCHY
ROOT Hips
{
  OFFSET 267.745 86.9975 -272.335
  CHANNELS 6 Xposition Yposition Zposition Zrotation Xrotation Yrotation
  JOINT LeftUpLeg
  {
    OFFSET 8.64259 1.95398 -2.38835
    CHANNELS 3 Zrotation Xrotation Yrotation
    JOINT LeftLeg
    {
      OFFSET 43.7702 0 0
      CHANNELS 3 Zrotation Xrotation Yrotation
      JOINT LeftFoot
      {
        OFFSET 40.6238 0 0
        CHANNELS 3 Zrotation Xrotation Yrotation
        JOINT LeftToeBase
        {
          OFFSET 12.7242 0 0
          CHANNELS 3 Zrotation Xrotation Yrotation
          End Site
          {
            OFFSET 0 0 0
          }
        }
      }
    }
  }
  JOINT RightUpLeg
  {
    OFFSET -8.2249 1.95398 -2.59336
    CHANNELS 3 Zrotation Xrotation Yrotation
    JOINT RightLeg
    {
      OFFSET 43.5653 0 0
      CHANNELS 3 Zrotation Xrotation Yrotation
      JOINT RightFoot
      {
        OFFSET 40.6238 0 0
        CHANNELS 3 Zrotation Xrotation Yrotation
        JOINT RightToeBase
        {
          OFFSET 12.7242 0 0
          CHANNELS 3 Zrotation Xrotation Yrotation
          End Site
          {
            OFFSET 0 0 0
          }
        }
      }
    }
  }
  JOINT Spine
  {
    OFFSET 0.165834 0.87714 6.61349
    CHANNELS 3 Zrotation Xrotation Yrotation
    JOINT Spine1
    {
      OFFSET 7.38963 1.71661e-005 0
      CHANNELS 3 Zrotation Xrotation Yrotation
      JOINT Spine2
      {
        OFFSET 11.9445 1.14441e-005 0
        CHANNELS 3 Zrotation Xrotation Yrotation
        JOINT Spine3
        {
          OFFSET 14.7254 4.19617e-005 0
          CHANNELS 3 Zrotation Xrotation Yrotation
          JOINT Spine4
          {
            OFFSET 10.9679 0 0
            CHANNELS 3 Zrotation Xrotation Yrotation
            JOINT RightShoulder
            {
              OFFSET 2.46616 -1.6653 3.69651
              CHANNELS 3 Zrotation Xrotation Yrotation
              JOINT RightArm
              {
                OFFSET 13.0012 0 0
                CHANNELS 3 Zrotation Xrotation Yrotation
                JOINT RightForeArm
                {
                  OFFSET 28.7848 1.52588e-005 0
                  CHANNELS 3 Zrotation Xrotation Yrotation
                  JOINT RightHand
                  {
                    OFFSET 26.5688 1.52588e-005 0
                    CHANNELS 3 Zrotation Xrotation Yrotation
                    End Site
                    {
                      OFFSET 0 0 0
                    }
                  }
                }
              }
            }
            JOINT LeftShoulder
            {
              OFFSET 2.38034 -1.29275 -3.7523
              CHANNELS 3 Zrotation Xrotation Yrotation
              JOINT LeftArm
              {
                OFFSET 16.3182 6.10352e-005 0
                CHANNELS 3 Zrotation Xrotation Yrotation
                JOINT LeftForeArm
                {
                  OFFSET 27.0901 0 0
                  CHANNELS 3 Zrotation Xrotation Yrotation
                  JOINT LeftHand
                  {
                    OFFSET 24.5451 1.52588e-005 0
                    CHANNELS 3 Zrotation Xrotation Yrotation
                    End Site
                    {
                      OFFSET 0 0 0
                    }
                  }
                }
              }
            }
            JOINT Neck
            {
              OFFSET 5.0226 -0.0266342 0
              CHANNELS 3 Zrotation Xrotation Yrotation
              JOINT Head
              {
                OFFSET 6.69364 2.86102e-005 0
                CHANNELS 3 Zrotation Xrotation Yrotation
                End Site
                {
                  OFFSET 0 0 0
                }
              }
            }
          }
        }
      }
    }
  }
}
MOTION
Frames:	15
Frame Time:	0.0416667
242.153 79.7163 -263.352 -146.293 54.4695 -40.8955 133.83 25.5525 71.1111 -104.83 -11.4681 3.75493 43.9029 -9.42631 -12.8887 81.318 -16.2344 -27.3233 157.336 29.3492 43.4403 -85.1132 -20.7157 15.2899 84.262 -15.3626 -4.17217 4.84981 5.06582 3.40769 -6.81261 8.45922 -87.6572 10.2913 -12.5051 5.72602 -1.33385 -12.2414 6.27644 -24.3465 -13.6382 1.6408 -4.33385 -13.6383 1.6408 58.9776 -53.3278 -143.516 135.992 -76.0964 103.816 167.491 62.0205 -164.28 -10.1451 0.17715 -7.546 -45.4645 -56.1847 141.626 -125.88 -16.6992 -78.9794 -118.575 65.1863 -108.797 24.7327 -16.8381 -67.2036 89.8665 17.8677 -32.2075 -128.439 32.9182 16.0571 
242.545 79.7602 -263.737 -146.45 54.2375 -40.8404 133.757 25.6442 70.8986 -104.801 -13.5672 3.86014 42.6943 -9.94159 -14.2044 80.1891 -16.7662 -29.8737 157.023 28.9376 43.5989 -85.8267 -20.0459 15.108 87.733 -18.5573 -4.64363 -0.372756 5.372 5.96948 -6.82538 8.45616 -87.6236 10.3008 -12.515 5.79505 -1.32458 -12.2482 6.34578 -24.3371 -13.6683 1.70368 -4.32444 -13.6683 1.70368 58.8562 -53.4005 -143.628 105.606 -77.0871 73.2241 172.816 69.2313 -166.855 -8.75664 0.252256 -9.07647 -45.4903 -56.2122 141.58 -122.072 -15.8315 -77.5896 -110.164 67.2415 -117.673 25.0674 -17.1549 -67.5233 89.5405 17.8291 -32.5963 -129.169 32.4474 16.4736 
243.65 79.883 -264.831 -146.896 53.5939 -40.6829 133.531 25.8785 70.3512 -104.648 -19.8872 4.23492 39.0992 -11.3074 -17.9995 76.3043 -17.9464 -37.791 155.972 27.551 44.123 -87.1743 -17.9692 14.5916 97.8028 -27.7581 -5.09904 -14.0901 3.96581 15.0261 -6.86056 8.4455 -87.5292 10.332 -12.5409 5.99014 -1.29409 -12.2656 6.54168 -24.3059 -13.7517 1.88198 -4.29328 -13.7517 1.88197 58.5012 -53.6088 -143.954 54.6907 -65.0892 22.0731 -168.487 88.8147 -178.967 -6.224 0.384152 -13.6565 -45.5579 -56.2974 141.453 -111.404 -12.9416 -73.9045 -63.4548 60.0033 -160.077 25.9737 -18.0851 -68.5639 88.5716 17.7602 -33.6946 -131.171 31.0986 17.5888 
245.346 80.0736 -266.533 -147.579 52.6335 -40.4375 133.121 26.137 69.6417 -104.186 -30.5668 5.09969 33.1844 -13.2275 -23.6692 68.4007 -18.1656 -51.7281 154.61 25.2342 44.4711 -87.8772 -15.0966 13.8628 112.85 -40.8675 -3.68921 -27.328 -5.31263 32.4049 -6.91249 8.42235 -87.3848 10.3936 -12.5764 6.29053 -1.23375 -12.2878 6.84307 -24.2438 -13.8756 2.15803 -4.23111 -13.8756 2.15803 57.9179 -53.9378 -144.496 39.0034 -40.2987 7.00585 15.5962 63.5181 0.0551405 -5.92792 0.656046 -19.7736 -45.647 -56.447 141.269 -95.7703 -7.56853 -69.1967 69.1669 -18.4792 -0.736082 27.4127 -19.761 -70.597 86.953 17.7893 -35.3672 -134.063 28.999 19.1141 
247.523 80.3329 -268.722 -148.443 51.4593 -40.1187 132.555 26.2293 68.8361 -102.756 -46.5524 7.14366 25.4656 -14.1072 -30.1238 56.9558 -14.6416 -70.3016 154.363 22.9834 43.4847 -89.4632 -10.2709 12.9118 131.252 -51.9468 3.01228 -21.107 -20.4416 58.9255 -6.97525 8.37992 -87.2041 10.4979 -12.615 6.671 -1.13111 -12.3098 7.22448 -24.1376 -14.0266 2.50981 -4.12492 -14.0266 2.5098 57.1156 -54.3613 -145.25 33.587 -15.281 3.909 11.9534 38.0247 0.0085683 -8.504 1.31759 -24.4236 -45.7172 -56.6917 141.068 -78.1801 -0.186384 -65.1133 45.4037 -24.9217 0.0676181 30.5052 -23.0258 -73.4083 84.6944 18.1007 -37.4319 -137.429 26.337 20.727 
250.127 80.6547 -271.278 -149.437 50.1689 -39.7384 132.008 26.0304 67.7673 -99.1272 -63.0845 11.802 18.2818 -16.109 -33.5498 46.5506 -3.90071 -86.2484 155.841 21.486 41.1182 -93.3528 -5.38011 11.877 147.12 -59.0434 9.99602 10.0405 -19.2861 89.294 -7.04352 8.31128 -87.0052 10.6573 -12.6537 7.09799 -0.973867 -12.3298 7.65232 -23.975 -14.1916 2.90632 -3.9623 -14.1916 2.90633 56.1384 -54.8232 -146.192 30.279 3.988 5.10775 6.02007 19.8806 0.00397246 -11.5726 2.05016 -26.537 -45.6858 -57.1234 140.918 -61.6935 7.46957 -62.4495 23.9117 7.63429 0.49761 46.0439 -30.3403 -70.0393 81.8779 18.912 -39.6462 -140.9 23.3742 22.1682 
253.112 81.0034 -274.106 -150.519 48.8497 -39.3046 131.647 25.6182 66.2996 -86.2739 -77.5492 25.9629 13.8594 -18.3879 -33.4598 40.8214 -2.39288 -103.075 158.558 20.3949 38.1649 -99.1248 -1.85025 10.7113 154.398 -65.2394 10.809 40.4852 0.117508 98.4838 -7.11092 8.2143 -86.819 10.8734 -12.6935 7.51037 -0.759861 -12.3516 8.06556 -23.755 -14.3532 3.2887 -3.74235 -14.3532 3.2887 55.1688 -55.1783 -147.179 27.1804 16.8052 8.53582 0.813585 7.91961 0.000546003 -13.0882 2.38553 -26.9221 -45.3481 -58.0218 140.961 -48.1977 13.6438 -60.7118 -26.0513 47.5957 -12.6706 80.5487 3.8327 20.0447 78.7625 20.5363 -41.6152 -144.193 20.5262 23.2981 
256.384 81.3463 -277.134 -151.651 47.5764 -38.8226 131.431 25.123 64.6044 -17.1631 -84.7306 96.4909 12.7578 -20.3603 -31.127 40.3623 1.92707 -112.716 161.899 19.1321 35.263 -106.028 2.12424 9.3607 151.106 -70.6182 3.43509 65.643 13.257 86.6838 -7.15192 8.0932 -86.7362 11.1297 -12.7258 7.72492 -0.504694 -12.3746 8.28108 -23.4974 -14.4484 3.48405 -3.48475 -14.4484 3.48404 54.8835 -55.0283 -147.625 23.8699 24.7447 13.1256 -3.51173 0.0980035 0.676149 -11.9133 2.14894 -26.8211 -43.9942 -60.4645 141.625 -37.7648 17.4744 -59.0876 -6.25664 41.5765 -52.6867 -3.01887 3.27735 63.2368 75.9632 23.9357 -42.2156 -147.022 18.838 24.203 
259.825 81.6847 -280.28 -152.807 46.4063 -38.2964 131.23 24.5847 62.9422 36.8151 -79.5583 151.926 13.7614 -21.6244 -28.2406 41.9807 -1.32277 -118.893 165.413 17.3023 32.7689 -112.962 5.71889 7.90519 130.456 -74.6103 -19.0762 86.5362 16.3646 68.2041 -7.15851 7.93914 -86.811 11.4404 -12.76 7.63672 -0.193015 -12.4125 8.19464 -23.191 -14.4544 3.38865 -3.17832 -14.4544 3.38866 55.5821 -54.1475 -147.307 20.1665 29.6156 18.3832 -8.04728 -4.08803 -9.67148 -8.16282 1.47495 -27.5884 -40.7666 -64.984 143.633 -29.6577 19.0165 -56.8715 10.1641 30.7076 -60.6094 -9.15963 -2.9112 40.7267 73.3135 29.6618 -40.6306 -149 18.7462 25.2068 
263.322 82.0327 -283.455 -153.968 45.3794 -37.7283 130.985 24.008 61.4555 47.0373 -73.9106 163.641 15.5299 -22.2615 -25.7218 44.45 -7.19572 -121.773 168.762 14.6891 30.8809 -119.053 5.9441 6.41218 88.0861 -73.5264 -61.6441 101.473 13.0955 52.7272 -7.17454 7.76281 -87.0043 11.7907 -12.8666 7.32855 0.160226 -12.5325 7.89209 -22.8546 -14.4634 3.05951 -2.84195 -14.4634 3.0595 56.9703 -52.4363 -146.635 16.4341 32.6126 23.814 -12.6371 -4.25223 -24.3702 -3.51032 0.609513 -30.0397 -34.5256 -70.7599 148.353 -23.4347 18.7879 -53.9789 13.8938 23.6815 -62.6896 -10.3463 -2.01313 22.658 70.2288 37.0751 -36.9777 -150.008 19.7296 26.6169 
266.774 82.3992 -286.571 -155.125 44.524 -37.1191 130.704 23.4081 60.1906 50.2236 -69.6102 168.342 17.2517 -22.5157 -23.872 47.1424 -13.6829 -122.243 171.667 11.2194 29.7046 -124.659 7.45438 5.0602 68.3319 -65.8694 -79.9875 111.388 7.82346 41.5271 -7.18687 7.66941 -87.2226 11.9669 -12.9861 6.9378 0.339992 -12.6689 7.5077 -22.6938 -14.4598 2.64731 -2.68118 -14.4598 2.6473 58.9527 -50.0998 -145.562 14.0812 34.8232 28.0228 -15.1603 -2.14326 -37.4163 0.254827 -0.251427 -33.6089 -22.9918 -76.6781 158.215 -18.1626 17.5102 -51.2718 15.8466 18.6847 -64.7485 -10.0192 -0.981021 8.89931 67.3959 44.036 -32.2706 -150.888 21.0777 28.1932 
270.081 82.7838 -289.538 -156.275 43.8612 -36.4678 130.433 22.8099 59.1478 51.3609 -66.3877 170.974 18.5863 -22.5919 -22.6686 49.8195 -19.5487 -121.239 173.892 7.00235 29.2483 -129.342 7.86063 3.90636 60.0174 -56.9453 -86.2285 117.978 2.73796 33.9073 -7.13707 7.58297 -87.607 11.9864 -13.0589 6.05136 0.363473 -12.7809 6.62658 -22.6795 -14.261 1.77636 -2.66687 -14.2609 1.77635 62.463 -46.5692 -143.125 12.0342 37.4434 31.3589 -15.6288 0.467633 -48.2237 2.63179 -0.958741 -36.9844 24.1922 -83.8203 -158.13 -11.8804 14.3539 -48.617 16.9519 14.7419 -67.0899 -9.38592 -0.305899 -0.844908 64.2417 54.1253 -26.8338 -152.723 23.7656 30.582 
273.144 83.1796 -292.273 -157.422 43.4069 -35.7704 130.236 22.2424 58.3088 51.6842 -63.9603 172.711 19.4893 -22.6009 -21.9589 52.3422 -24.3293 -119.502 175.279 2.37644 29.4045 -133.104 8.2414 2.99385 57.5312 -49.099 -86.5472 122.458 -1.37202 28.8762 -7.8271 10.1355 -82.9339 7.19834 -12.5992 14.4867 -4.49864 -11.9568 15.0176 -27.17 -16.3448 10.0398 -7.15735 -16.3448 10.0398 48.5251 -56.1064 -154.638 55.4407 33.5765 1.00126 -17.7333 -2.49456 -53.5999 3.13952 -1.2194 -40.2644 -53.6833 -36.0972 139.259 -12.3433 29.6396 -70.9403 18.5146 17.4946 -64.6848 -8.5648 0.104895 -7.98139 71.1963 -7.515 -72.0481 -166.789 -4.16022 19.9215 
275.873 83.5773 -294.694 -158.581 43.1752 -35.0183 130.185 21.7353 57.6512 51.6661 -62.1298 173.952 20.0478 -22.5839 -21.5697 54.5882 -27.9761 -117.558 175.775 -2.12169 29.9792 -135.884 8.70458 2.31062 57.4954 -42.8788 -84.8661 125.529 -4.40237 25.6199 -7.7716 10.5555 -82.4832 6.34363 -12.355 15.1972 -5.36406 -11.6826 15.7149 -27.9628 -16.322 10.8059 -7.95015 -16.322 10.8059 49.0767 -56.1455 -153.959 61.0229 32.2497 -1.87631 -17.0718 -1.46534 -59.5432 3.66067 -1.46175 -42.1394 -54.5562 -34.6088 138.587 -7.90845 28.801 -72.7166 19.443 15.1459 -66.331 -8.08934 0.33632 -12.8976 70.7287 -11.2824 -74.2312 -168.548 -6.46605 19.1751 
278.174 83.9677 -296.723 -159.773 43.181 -34.1981 130.361 21.3191 57.1524 51.5477 -60.7571 174.866 20.397 -22.5455 -21.3389 56.4453 -30.6025 -115.766 175.415 -5.82142 30.7516 -137.665 9.40942 1.82288 58.4784 -38.326 -82.9777 127.568 -6.52282 23.5319 -7.69633 10.9073 -82.1365 5.62241 -12.1096 15.7327 -6.09408 -11.4148 16.2377 -28.6301 -16.246 11.4028 -8.61747 -16.246 11.4028 49.6515 -56.329 -153.156 65.2273 30.6074 -4.01117 -16.3284 -1.06755 -63.8228 3.57731 -1.4901 -43.5057 -55.3409 -33.8006 137.681 -4.16922 27.5756 -73.3271 20.2922 12.8431 -68.1837 -7.70323 0.477103 -16.5155 69.8065 -14.3451 -76.0171 -169.785 -9.02553 18.46 
